<svg width="185" height="196" viewBox="0 0 185 196" fill="none" xmlns="http://www.w3.org/2000/svg">
<path fill-rule="evenodd" clip-rule="evenodd" d="M146.747 120.215C146.747 125.957 144.447 131.465 140.353 135.526C136.259 139.586 130.706 141.868 124.916 141.868C119.125 141.868 113.572 139.586 109.478 135.526C105.384 131.465 103.084 125.957 103.084 120.215C103.084 114.472 105.384 108.964 109.478 104.903C113.572 100.843 119.125 98.5614 124.916 98.5614C130.706 98.5614 136.259 100.843 140.353 104.903C144.447 108.964 146.747 114.472 146.747 120.215ZM135.831 120.215C135.831 123.086 134.681 125.84 132.634 127.87C130.587 129.9 127.811 131.041 124.916 131.041C122.02 131.041 119.244 129.9 117.197 127.87C115.15 125.84 114 123.086 114 120.215C114 117.343 115.15 114.589 117.197 112.559C119.244 110.529 122.02 109.388 124.916 109.388C127.811 109.388 130.587 110.529 132.634 112.559C134.681 114.589 135.831 117.343 135.831 120.215Z" fill="#009763"/>
<path fill-rule="evenodd" clip-rule="evenodd" d="M124.915 76.9081C91.7583 76.9081 64.878 103.568 64.878 136.454C64.878 169.34 91.7583 196 124.915 196C158.072 196 184.952 169.34 184.952 136.454C184.952 103.568 158.072 76.9081 124.915 76.9081ZM75.7939 136.454C75.7939 147.768 79.6854 158.183 86.2076 166.454C90.7881 160.488 96.6972 155.654 103.473 152.327C110.25 149.001 117.709 147.274 125.27 147.281C132.733 147.274 140.099 148.956 146.807 152.2C153.514 155.444 159.387 160.164 163.978 166C168.707 159.848 171.891 152.668 173.266 145.054C174.642 137.439 174.17 129.609 171.889 122.212C169.608 114.814 165.583 108.062 160.149 102.513C154.714 96.9644 148.025 92.779 140.636 90.3033C133.247 87.8275 125.369 87.1325 117.655 88.2758C109.942 89.4191 102.613 92.3678 96.2762 96.8779C89.9395 101.388 84.7766 107.33 81.2149 114.212C77.6531 121.094 75.7949 128.718 75.7939 136.454ZM124.915 185.174C113.639 185.19 102.703 181.343 93.9579 174.282C97.4778 169.284 102.163 165.204 107.615 162.387C113.066 159.571 119.123 158.103 125.27 158.107C131.34 158.102 137.324 159.534 142.724 162.283C148.124 165.032 152.785 169.02 156.32 173.914C147.507 181.204 136.391 185.19 124.915 185.174Z" fill="#009763"/>
<g clip-path="url(#clip0_93_1257)">
<path d="M1.5031 12.1224C1.49307 10.8512 2.8546 10.1288 3.89005 10.7117L4.00343 10.7819L6.69037 12.592C8.11912 13.5552 7.23017 15.7485 5.5867 15.5167L5.44924 15.4916L5.33987 15.4675C5.95685 16.672 6.88704 17.6879 8.0326 18.4083C9.17815 19.1288 10.4967 19.5272 11.8495 19.5616C13.2024 19.596 14.5395 19.2651 15.7202 18.6038C16.9009 17.9425 17.8815 16.9752 18.5589 15.8036C18.6576 15.6324 18.789 15.4822 18.9457 15.3617C19.1025 15.2412 19.2814 15.1528 19.4723 15.1014C19.6632 15.0501 19.8623 15.0369 20.0584 15.0625C20.2544 15.0881 20.4434 15.1521 20.6147 15.2508C20.786 15.3495 20.9362 15.481 21.0567 15.6377C21.1771 15.7944 21.2656 15.9733 21.3169 16.1642C21.3682 16.3551 21.3815 16.5543 21.3559 16.7503C21.3302 16.9463 21.2662 17.1354 21.1676 17.3067C18.8428 21.3401 14.0248 23.4792 9.3131 22.216C7.08653 21.6193 5.11701 20.309 3.70637 18.4859C2.29572 16.6628 1.52177 14.4275 1.5031 12.1224ZM2.9138 6.7746C5.23753 2.74017 10.0556 0.602054 14.7673 1.86325C16.9938 2.45993 18.9633 3.77021 20.374 5.59332C21.7846 7.41643 22.5586 9.65179 22.5772 11.9568C22.5873 13.2281 21.2257 13.9505 20.1903 13.3685L20.0769 13.2983L17.39 11.4873C15.9612 10.5251 16.8502 8.33178 18.4926 8.56355L18.6311 8.58864L18.7395 8.61171C18.1223 7.40737 17.192 6.39163 16.0463 5.67135C14.9006 4.95108 13.582 4.5529 12.2292 4.5187C10.8764 4.48451 9.53933 4.81557 8.35875 5.47705C7.17816 6.13853 6.19769 7.10597 5.52048 8.2776C5.42474 8.45436 5.29457 8.61014 5.13764 8.73577C4.98071 8.86139 4.80021 8.9543 4.60678 9.00902C4.41336 9.06374 4.21093 9.07916 4.01145 9.05436C3.81197 9.02956 3.61948 8.96506 3.44533 8.86465C3.27119 8.76424 3.11893 8.62996 2.99753 8.46974C2.87614 8.30952 2.78807 8.1266 2.73852 7.93179C2.68898 7.73697 2.67896 7.53421 2.70907 7.33546C2.73917 7.13671 2.80878 6.946 2.9138 6.7746Z" fill="#009763"/>
</g>
<defs>
<clipPath id="clip0_93_1257">
<rect width="24" height="24" fill="white" transform="scale(1.00334)"/>
</clipPath>
</defs>
</svg>
