<svg width="64" height="61" viewBox="0 0 64 61" fill="none" xmlns="http://www.w3.org/2000/svg">
<path fill-rule="evenodd" clip-rule="evenodd" d="M43.5398 22.1818C43.5398 25.1233 42.3166 27.9443 40.1392 30.0243C37.9618 32.1042 35.0086 33.2727 31.9293 33.2727C28.85 33.2727 25.8968 32.1042 23.7194 30.0243C21.542 27.9443 20.3187 25.1233 20.3187 22.1818C20.3187 19.2403 21.542 16.4193 23.7194 14.3394C25.8968 12.2594 28.85 11.0909 31.9293 11.0909C35.0086 11.0909 37.9618 12.2594 40.1392 14.3394C42.3166 16.4193 43.5398 19.2403 43.5398 22.1818ZM37.7346 22.1818C37.7346 23.6526 37.1229 25.0631 36.0342 26.103C34.9455 27.143 33.4689 27.7273 31.9293 27.7273C30.3896 27.7273 28.913 27.143 27.8243 26.103C26.7356 25.0631 26.124 23.6526 26.124 22.1818C26.124 20.7111 26.7356 19.3006 27.8243 18.2606C28.913 17.2206 30.3896 16.6364 31.9293 16.6364C33.4689 16.6364 34.9455 17.2206 36.0342 18.2606C37.1229 19.3006 37.7346 20.7111 37.7346 22.1818Z" fill="#009763"/>
<path fill-rule="evenodd" clip-rule="evenodd" d="M31.9291 0C14.2955 0 0 13.6557 0 30.5C0 47.3443 14.2955 61 31.9291 61C49.5626 61 63.8581 47.3443 63.8581 30.5C63.8581 13.6557 49.5626 0 31.9291 0ZM5.80528 30.5C5.80528 36.295 7.87487 41.6297 11.3435 45.8665C13.7795 42.8106 16.9221 40.3342 20.5258 38.6305C24.1296 36.9268 28.0968 36.0421 32.1177 36.0455C36.0866 36.0419 40.004 36.9037 43.5714 38.5653C47.1387 40.2268 50.262 42.6443 52.7033 45.6335C55.2182 42.4826 56.9116 38.8049 57.6433 34.9047C58.3749 31.0045 58.1237 26.994 56.9106 23.2049C55.6975 19.4158 53.5573 15.9572 50.667 13.1151C47.7768 10.273 44.2196 8.12925 40.2898 6.86114C36.36 5.59303 32.1706 5.23705 28.0681 5.82265C23.9657 6.40826 20.0683 7.91861 16.6982 10.2287C13.3282 12.5389 10.5825 15.5824 8.68827 19.1074C6.79406 22.6324 5.80581 26.5377 5.80528 30.5ZM31.9291 55.4545C25.9321 55.4631 20.1161 53.4924 15.4653 49.8758C17.3373 47.3159 19.8289 45.2257 22.7282 43.7833C25.6276 42.3408 28.8487 41.5887 32.1177 41.5909C35.3459 41.5884 38.5282 42.3217 41.4002 43.7299C44.2722 45.138 46.751 47.1803 48.6309 49.6873C43.944 53.4213 38.0321 55.4627 31.9291 55.4545Z" fill="#009763"/>
</svg>
