<svg width="22" height="17" viewBox="0 0 22 17" fill="none" xmlns="http://www.w3.org/2000/svg">
<path d="M5.72769e-05 8.56642C-0.0103666 7.54104 1.40416 6.95834 2.4799 7.42854L2.59769 7.48519L5.38921 8.94517C6.87357 9.7221 5.95002 11.4912 4.24258 11.3043L4.09977 11.284L3.98615 11.2646C4.62714 12.2361 5.59354 13.0556 6.78368 13.6367C7.97382 14.2178 9.34369 14.5392 10.7492 14.5669C12.1547 14.5946 13.5438 14.3278 14.7705 13.7944C15.9971 13.2609 17.0159 12.4807 17.7196 11.5357C17.8222 11.3976 17.9587 11.2764 18.1216 11.1793C18.2844 11.0821 18.4703 11.0107 18.6686 10.9693C18.8669 10.9279 19.0738 10.9173 19.2775 10.9379C19.4811 10.9586 19.6775 11.0102 19.8555 11.0898C20.0334 11.1694 20.1895 11.2755 20.3146 11.4019C20.4398 11.5283 20.5317 11.6726 20.585 11.8266C20.6384 11.9806 20.6521 12.1412 20.6255 12.2993C20.5989 12.4574 20.5324 12.6099 20.4298 12.7481C18.0146 16.0015 13.0091 17.7269 8.11402 16.708C5.80078 16.2267 3.75462 15.1698 2.28907 13.6993C0.823526 12.2287 0.0194487 10.4257 5.72769e-05 8.56642ZM1.46566 4.25285C3.87983 0.998659 8.88538 -0.725958 13.7804 0.291331C16.0937 0.772612 18.1398 1.8295 19.6054 3.30003C21.0709 4.77056 21.875 6.57361 21.8944 8.43288C21.9048 9.45827 20.4903 10.041 19.4146 9.57157L19.2968 9.51492L16.5053 8.05413C15.0209 7.27801 15.9444 5.50888 17.6508 5.69583L17.7947 5.71607L17.9073 5.73468C17.2661 4.76325 16.2995 3.94395 15.1093 3.36297C13.919 2.78199 12.5491 2.46082 11.1436 2.43324C9.73813 2.40566 8.34905 2.67269 7.12252 3.20624C5.89599 3.73979 4.87735 4.52014 4.17378 5.46518C4.07432 5.60776 3.93909 5.73341 3.77605 5.83474C3.61301 5.93607 3.42549 6.01101 3.22453 6.05515C3.02358 6.09929 2.81327 6.11172 2.60603 6.09172C2.39878 6.07172 2.1988 6.01969 2.01788 5.9387C1.83696 5.85771 1.67877 5.7494 1.55265 5.62016C1.42653 5.49093 1.33503 5.34339 1.28356 5.18625C1.23209 5.02911 1.22168 4.86556 1.25296 4.70524C1.28423 4.54493 1.35655 4.39111 1.46566 4.25285Z" fill="#489F6B"/>
</svg>
