<svg width="147" height="148" viewBox="0 0 147 148" fill="none" xmlns="http://www.w3.org/2000/svg">
<path d="M122.5 30.8333H106.661L90.0804 14.1402C89.5126 13.5664 88.8376 13.1114 88.0944 12.8013C87.3512 12.4912 86.5545 12.3322 85.75 12.3333H61.25C60.4455 12.3322 59.6488 12.4912 58.9056 12.8013C58.1624 13.1114 57.4874 13.5664 56.9196 14.1402L40.3393 30.8333H24.5C17.7441 30.8333 12.25 36.3648 12.25 43.1667V111C12.25 117.802 17.7441 123.333 24.5 123.333H122.5C129.256 123.333 134.75 117.802 134.75 111V43.1667C134.75 36.3648 129.256 30.8333 122.5 30.8333ZM73.5 104.833C56.9013 104.833 42.875 90.7117 42.875 74C42.875 57.2822 56.9013 43.1667 73.5 43.1667C90.0988 43.1667 104.125 57.2822 104.125 74C104.125 90.7117 90.0988 104.833 73.5 104.833Z" fill="white"/>
<path d="M79.625 55.5H67.375V67.8333H55.125V80.1667H67.375V92.5H79.625V80.1667H91.875V67.8333H79.625V55.5Z" fill="white"/>
</svg>
