<svg width="120" height="119" viewBox="0 0 120 119" fill="none" xmlns="http://www.w3.org/2000/svg">
<path fill-rule="evenodd" clip-rule="evenodd" d="M81.8059 43.273C81.8059 49.0113 79.5076 54.5146 75.4165 58.5722C71.3254 62.6298 65.7767 64.9094 59.9911 64.9094C54.2054 64.9094 48.6567 62.6298 44.5657 58.5722C40.4746 54.5146 38.1763 49.0113 38.1763 43.273C38.1763 37.5347 40.4746 32.0314 44.5657 27.9738C48.6567 23.9162 54.2054 21.6366 59.9911 21.6366C65.7767 21.6366 71.3254 23.9162 75.4165 27.9738C79.5076 32.0314 81.8059 37.5347 81.8059 43.273ZM70.8985 43.273C70.8985 46.1422 69.7493 48.8938 67.7038 50.9226C65.6582 52.9514 62.8839 54.0912 59.9911 54.0912C57.0983 54.0912 54.3239 52.9514 52.2784 50.9226C50.2328 48.8938 49.0837 46.1422 49.0837 43.273C49.0837 40.4038 50.2328 37.6522 52.2784 35.6234C54.3239 33.5946 57.0983 32.4548 59.9911 32.4548C62.8839 32.4548 65.6582 33.5946 67.7038 35.6234C69.7493 37.6522 70.8985 40.4038 70.8985 43.273Z" fill="#009763"/>
<path fill-rule="evenodd" clip-rule="evenodd" d="M59.9908 0C26.8595 0 0 26.6398 0 59.5C0 92.3602 26.8595 119 59.9908 119C93.1221 119 119.982 92.3602 119.982 59.5C119.982 26.6398 93.1221 0 59.9908 0ZM10.9074 59.5C10.9074 70.805 14.7959 81.2121 21.3131 89.4772C25.89 83.5158 31.7946 78.6847 38.5655 75.3611C45.3365 72.0376 52.7905 70.3117 60.3453 70.3182C67.8023 70.3112 75.1625 71.9924 81.8652 75.2339C88.5679 78.4753 94.4362 83.1914 99.023 89.0228C103.748 82.8759 106.93 75.7014 108.305 68.0928C109.679 60.4843 109.207 52.6604 106.928 45.2686C104.649 37.8768 100.628 31.1296 95.1971 25.5852C89.7667 20.0408 83.0832 15.8587 75.6996 13.3848C68.316 10.911 60.4445 10.2165 52.7366 11.3589C45.0287 12.5014 37.7058 15.4478 31.3739 19.9544C25.042 24.4611 19.8832 30.3984 16.3242 37.2751C12.7652 44.1518 10.9084 51.7702 10.9074 59.5ZM59.9908 108.182C48.7232 108.199 37.7957 104.354 29.0574 97.2987C32.5746 92.3047 37.2561 88.2272 42.7036 85.4133C48.1511 82.5993 54.2033 81.132 60.3453 81.1364C66.4107 81.1315 72.3897 82.5621 77.7858 85.3091C83.182 88.0561 87.8394 92.0403 91.3714 96.9309C82.5653 104.215 71.4577 108.198 59.9908 108.182Z" fill="#009763"/>
</svg>
